<svg width="14" height="16" viewBox="0 0 14 16" fill="none" xmlns="http://www.w3.org/2000/svg">
<path d="M6.93112 7.44482C7.66922 7.44482 8.39075 7.24867 9.00446 6.88116C9.61817 6.51365 10.0965 5.99129 10.379 5.38014C10.6614 4.769 10.7353 4.09651 10.5913 3.44772C10.4473 2.79893 10.0919 2.20298 9.56998 1.73523C9.04806 1.26748 8.3831 0.948935 7.65918 0.819882C6.93526 0.69083 6.1849 0.757064 5.50299 1.01021C4.82107 1.26335 4.23822 1.69204 3.82816 2.24206C3.41809 2.79208 3.19922 3.43872 3.19922 4.10022C3.19922 4.98726 3.5924 5.83798 4.29227 6.46521C4.99214 7.09245 5.94136 7.44482 6.93112 7.44482ZM6.93112 1.71122C7.45834 1.71122 7.97371 1.85133 8.41208 2.11384C8.85044 2.37634 9.1921 2.74946 9.39386 3.18599C9.59562 3.62252 9.64841 4.10287 9.54555 4.56629C9.4427 5.02971 9.18882 5.45539 8.81602 5.7895C8.44322 6.12361 7.96825 6.35114 7.45117 6.44332C6.93408 6.5355 6.39811 6.48819 5.91102 6.30737C5.42394 6.12655 5.00762 5.82035 4.71472 5.42748C4.42181 5.03461 4.26548 4.57272 4.26548 4.10022C4.26548 3.46662 4.54632 2.85897 5.04623 2.41094C5.54613 1.96292 6.22415 1.71122 6.93112 1.71122Z" fill="black"/>
<path d="M13.5788 10.9662C12.7238 10.1563 11.6935 9.51121 10.5509 9.07035C9.4083 8.62948 8.17736 8.4021 6.93335 8.4021C5.68934 8.4021 4.4584 8.62948 3.31578 9.07035C2.17316 9.51121 1.14287 10.1563 0.287891 10.9662C0.102529 11.1436 -0.000419526 11.3777 1.285e-06 11.6207V14.134C1.285e-06 14.3874 0.112339 14.6305 0.312301 14.8097C0.512263 14.9889 0.78347 15.0896 1.06626 15.0896H12.7951C13.0779 15.0896 13.3491 14.9889 13.5491 14.8097C13.749 14.6305 13.8614 14.3874 13.8614 14.134V11.6207C13.8632 11.3783 13.7622 11.1443 13.5788 10.9662ZM12.7951 14.134H1.06626V11.616C1.82183 10.9029 2.73138 10.3351 3.73956 9.94715C4.74774 9.55915 5.83348 9.35907 6.93068 9.35907C8.02789 9.35907 9.11362 9.55915 10.1218 9.94715C11.13 10.3351 12.0395 10.9029 12.7951 11.616V14.134Z" fill="black"/>
</svg>
