<svg width="18" height="22" viewBox="0 0 18 22" fill="none" xmlns="http://www.w3.org/2000/svg">
<path d="M9.00041 0C6.76637 0 4.93261 1.90723 4.93261 4.23077V5.07692H0.915254L0.864814 5.87062L0.0512544 21.1014L0 22H18L17.9496 21.1005L17.136 5.86977L17.0847 5.07692H13.0682V4.23077C13.0682 1.90723 11.2344 0 9.00041 0ZM9.00041 1.69231C9.64771 1.69231 10.2685 1.95975 10.7262 2.43581C11.1839 2.91186 11.4411 3.55753 11.4411 4.23077V5.07692H6.55973V4.23077C6.55973 3.55753 6.81687 2.91186 7.27459 2.43581C7.7323 1.95975 8.3531 1.69231 9.00041 1.69231ZM2.44068 6.76923H4.93261V9.30769H6.55973V6.76923H11.4411V9.30769H13.0682V6.76923H15.5601L16.272 20.3077H1.72963L2.44068 6.76923Z" fill="#002140"/>
</svg>
