<svg width="13" height="15" viewBox="0 0 13 15" fill="none" xmlns="http://www.w3.org/2000/svg">
<path d="M1.07129 10.1677H11.7856V11.128H1.07129V10.1677Z" fill="black"/>
<path d="M9.64286 4.40637V5.84672C9.64286 5.97405 9.58642 6.09617 9.48595 6.18621C9.38548 6.27625 9.24922 6.32684 9.10714 6.32684H8.57143V4.40637H4.28571V6.32684H3.75C3.60792 6.32684 3.47166 6.27625 3.37119 6.18621C3.27073 6.09617 3.21429 5.97405 3.21429 5.84672V4.40637H1.07143V13.0485H11.7857V4.40637H9.64286ZM3.21429 3.44613C3.21429 2.68212 3.55293 1.9494 4.15573 1.40917C4.75852 0.868931 5.57609 0.56543 6.42857 0.56543C7.28105 0.56543 8.09862 0.868931 8.70142 1.40917C9.30421 1.9494 9.64286 2.68212 9.64286 3.44613H12.3214C12.4635 3.44613 12.5998 3.49672 12.7002 3.58676C12.8007 3.6768 12.8571 3.79891 12.8571 3.92625V13.5286C12.8571 13.6559 12.8007 13.778 12.7002 13.8681C12.5998 13.9581 12.4635 14.0087 12.3214 14.0087H0.535714C0.393634 14.0087 0.257373 13.9581 0.156907 13.8681C0.0564413 13.778 0 13.6559 0 13.5286V3.92625C0 3.79891 0.0564413 3.6768 0.156907 3.58676C0.257373 3.49672 0.393634 3.44613 0.535714 3.44613H3.21429ZM4.28571 3.44613H8.57143C8.57143 2.93679 8.34566 2.44831 7.9438 2.08816C7.54194 1.728 6.99689 1.52566 6.42857 1.52566C5.86025 1.52566 5.31521 1.728 4.91334 2.08816C4.51148 2.44831 4.28571 2.93679 4.28571 3.44613Z" fill="black"/>
</svg>
