<svg width="25" height="21" viewBox="0 0 25 21" fill="none" xmlns="http://www.w3.org/2000/svg">
<path d="M9.375 7.875C9.375 8.57119 9.12807 9.23887 8.68853 9.73116C8.24899 10.2234 7.65285 10.5 7.03125 10.5C6.40965 10.5 5.81351 10.2234 5.37397 9.73116C4.93443 9.23887 4.6875 8.57119 4.6875 7.875C4.6875 7.17881 4.93443 6.51113 5.37397 6.01884C5.81351 5.52656 6.40965 5.25 7.03125 5.25C7.65285 5.25 8.24899 5.52656 8.68853 6.01884C9.12807 6.51113 9.375 7.17881 9.375 7.875ZM3.125 13.4733C3.12541 13.0329 3.28177 12.6108 3.55976 12.2994C3.83775 11.9881 4.21467 11.813 4.60781 11.8125H9.45312C9.84626 11.813 10.2232 11.9881 10.5012 12.2994C10.7792 12.6108 10.9355 13.0329 10.9359 13.4733C10.9359 14.9555 10.0344 16.247 8.75 16.6075L8.65781 16.6338C7.58906 16.9313 6.47031 16.9313 5.40156 16.6338L5.30781 16.6075C4.6841 16.4323 4.13053 16.0288 3.73505 15.4609C3.33957 14.893 3.12485 14.1934 3.125 13.4733ZM14.8438 7C14.6365 7 14.4378 7.09219 14.2913 7.25628C14.1448 7.42038 14.0625 7.64294 14.0625 7.875C14.0625 8.10706 14.1448 8.32963 14.2913 8.49372C14.4378 8.65781 14.6365 8.75 14.8438 8.75H19.5312C19.7385 8.75 19.9372 8.65781 20.0837 8.49372C20.2302 8.32963 20.3125 8.10706 20.3125 7.875C20.3125 7.64294 20.2302 7.42038 20.0837 7.25628C19.9372 7.09219 19.7385 7 19.5312 7H14.8438ZM14.8438 12.25C14.6365 12.25 14.4378 12.3422 14.2913 12.5063C14.1448 12.6704 14.0625 12.8929 14.0625 13.125C14.0625 13.3571 14.1448 13.5796 14.2913 13.7437C14.4378 13.9078 14.6365 14 14.8438 14H19.5312C19.7385 14 19.9372 13.9078 20.0837 13.7437C20.2302 13.5796 20.3125 13.3571 20.3125 13.125C20.3125 12.8929 20.2302 12.6704 20.0837 12.5063C19.9372 12.3422 19.7385 12.25 19.5312 12.25H14.8438ZM0 3.0625C0 1.372 1.225 0 2.73438 0H22.2656C23.775 0 25 1.372 25 3.0625V17.9375C25 18.7497 24.7119 19.5287 24.1991 20.103C23.6863 20.6773 22.9908 21 22.2656 21H2.73438C2.00917 21 1.31367 20.6773 0.80088 20.103C0.288085 19.5287 0 18.7497 0 17.9375V3.0625ZM2.73438 1.75C2.42357 1.75 2.1255 1.88828 1.90573 2.13442C1.68596 2.38056 1.5625 2.7144 1.5625 3.0625V17.9375C1.5625 18.662 2.0875 19.25 2.73438 19.25H22.2656C22.5764 19.25 22.8745 19.1117 23.0943 18.8656C23.314 18.6194 23.4375 18.2856 23.4375 17.9375V3.0625C23.4375 2.7144 23.314 2.38056 23.0943 2.13442C22.8745 1.88828 22.5764 1.75 22.2656 1.75H2.73438Z" fill="black"/>
</svg>
