<svg width="16" height="16" viewBox="0 0 16 16" fill="none" xmlns="http://www.w3.org/2000/svg">
<path d="M13.8931 3.65512C13.5526 3.31445 13.1483 3.04421 12.7033 2.85984C12.2584 2.67546 11.7814 2.58057 11.2998 2.58057C10.8181 2.58057 10.3412 2.67546 9.89618 2.85984C9.45121 3.04421 9.04692 3.31445 8.70642 3.65512L7.99975 4.36178L7.29309 3.65512C6.60529 2.96732 5.67244 2.58092 4.69975 2.58092C3.72706 2.58092 2.79422 2.96732 2.10642 3.65512C1.41863 4.34291 1.03223 5.27576 1.03223 6.24845C1.03223 7.22114 1.41863 8.15399 2.10642 8.84178L2.81309 9.54845L7.99975 14.7351L13.1864 9.54845L13.8931 8.84178C14.2337 8.50128 14.504 8.09699 14.6884 7.65202C14.8727 7.20705 14.9676 6.73011 14.9676 6.24845C14.9676 5.76679 14.8727 5.28985 14.6884 4.84488C14.504 4.39991 14.2337 3.99562 13.8931 3.65512V3.65512Z" stroke="black" stroke-width="1.2" stroke-linecap="round" stroke-linejoin="round"/>
</svg>
