<svg width="22" height="22" viewBox="0 0 22 22" fill="none" xmlns="http://www.w3.org/2000/svg">
<g clip-path="url(#clip0_25_12455)">
<path d="M12.4211 4.45778L12.4215 4.45741C14.3245 2.49389 17.3495 2.22413 19.3456 3.92477C21.6879 5.92388 21.814 9.52306 19.7116 11.6928L19.7114 11.6929L11.3971 20.2779C11.3971 20.278 11.397 20.278 11.3969 20.2781C11.1742 20.5078 10.8225 20.5078 10.5998 20.2781C10.5998 20.278 10.5997 20.278 10.5997 20.2779L2.28569 11.6933C0.186978 9.5236 0.313102 5.9242 2.65518 3.92498C4.65161 2.22384 7.68074 2.49427 9.57902 4.45684L9.57994 4.45778L10.4264 5.33005L11.0005 5.92164L11.5746 5.33005L12.4211 4.45778Z" stroke="currentColor" stroke-width="1.6"/>
</g>
<defs>
<clipPath id="clip0_25_12455">
<rect width="22" height="22" fill="white"/>
</clipPath>
</defs>
</svg>
