<svg width="22" height="21" viewBox="0 0 22 21" fill="none" xmlns="http://www.w3.org/2000/svg">
<path fill-rule="evenodd" clip-rule="evenodd" d="M7.14316 0.063C8.26494 0.0114545 8.62261 0 11.4801 0C14.3377 0 14.6953 0.0124091 15.8162 0.063C16.937 0.113591 17.702 0.292091 18.3715 0.550773C19.0725 0.815182 19.7084 1.2285 20.2344 1.76305C20.77 2.28709 21.1831 2.92091 21.4471 3.62155C21.7072 4.28973 21.8851 5.05336 21.9367 6.17018C21.9883 7.29177 21.9998 7.64877 21.9998 10.5C21.9998 13.3522 21.9874 13.7092 21.9367 14.8289C21.886 15.9457 21.7072 16.7093 21.4471 17.3775C21.1831 18.0782 20.7693 18.7131 20.2344 19.2379C19.7084 19.7725 19.0725 20.1848 18.3715 20.4483C17.702 20.7079 16.937 20.8855 15.8181 20.937C14.6953 20.9885 14.3377 21 11.4801 21C8.62261 21 8.26494 20.9876 7.14316 20.937C6.02424 20.8864 5.25918 20.7079 4.58974 20.4483C3.88771 20.1848 3.25166 19.7717 2.72584 19.2379C2.19066 18.7135 1.7765 18.079 1.51225 17.3785C1.25309 16.7103 1.07521 15.9466 1.02357 14.8298C0.971925 13.7082 0.960449 13.3512 0.960449 10.5C0.960449 7.64782 0.972882 7.29082 1.02357 6.17209C1.07425 5.05336 1.25309 4.28973 1.51225 3.62155C1.77689 2.92099 2.19137 2.28644 2.7268 1.76209C3.25187 1.22802 3.88729 0.814651 4.58878 0.550773C5.25822 0.292091 6.02329 0.114545 7.1422 0.063H7.14316ZM15.731 1.953C14.6217 1.90241 14.2889 1.89191 11.4801 1.89191C8.67138 1.89191 8.33857 1.90241 7.22923 1.953C6.20308 1.99977 5.64649 2.17064 5.27543 2.31477C4.78483 2.50568 4.43386 2.73191 4.06567 3.09941C3.71665 3.43832 3.44805 3.85091 3.27956 4.30691C3.13515 4.67727 2.96397 5.23282 2.91711 6.25705C2.86642 7.36432 2.85591 7.6965 2.85591 10.5C2.85591 13.3035 2.86642 13.6357 2.91711 14.743C2.96397 15.7672 3.13515 16.3227 3.27956 16.6931C3.44788 17.1484 3.71661 17.5617 4.06567 17.9006C4.40517 18.249 4.81926 18.5172 5.27543 18.6852C5.64649 18.8294 6.20308 19.0002 7.22923 19.047C8.33857 19.0976 8.67042 19.1081 11.4801 19.1081C14.2898 19.1081 14.6217 19.0976 15.731 19.047C16.7572 19.0002 17.3138 18.8294 17.6848 18.6852C18.1754 18.4943 18.5264 18.2681 18.8946 17.9006C19.2437 17.5617 19.5124 17.1484 19.6807 16.6931C19.8251 16.3227 19.9963 15.7672 20.0432 14.743C20.0938 13.6357 20.1044 13.3035 20.1044 10.5C20.1044 7.6965 20.0938 7.36432 20.0432 6.25705C19.9963 5.23282 19.8251 4.67727 19.6807 4.30691C19.4894 3.81723 19.2628 3.46691 18.8946 3.09941C18.555 2.75107 18.1417 2.48297 17.6848 2.31477C17.3138 2.17064 16.7572 1.99977 15.731 1.953ZM10.1365 13.7369C10.8869 14.0486 11.7224 14.0907 12.5005 13.8559C13.2785 13.6211 13.9507 13.124 14.4023 12.4494C14.8539 11.7749 15.0569 10.9647 14.9765 10.1574C14.8962 9.3501 14.5375 8.59566 13.9618 8.02295C13.5948 7.65686 13.1511 7.37655 12.6625 7.20219C12.1739 7.02782 11.6527 6.96375 11.1363 7.01459C10.62 7.06542 10.1213 7.2299 9.6763 7.49617C9.23127 7.76244 8.85092 8.12389 8.56265 8.55449C8.27437 8.9851 8.08533 9.47414 8.00913 9.98642C7.93294 10.4987 7.97149 11.0215 8.122 11.5171C8.27252 12.0127 8.53126 12.4689 8.87959 12.8527C9.22793 13.2365 9.65719 13.5385 10.1365 13.7369ZM7.65671 6.68373C8.15881 6.18257 8.75489 5.78503 9.41091 5.5138C10.0669 5.24257 10.7701 5.10297 11.4801 5.10297C12.1902 5.10297 12.8933 5.24257 13.5494 5.5138C14.2054 5.78503 14.8015 6.18257 15.3036 6.68373C15.8057 7.18489 16.2039 7.77985 16.4757 8.43465C16.7474 9.08945 16.8873 9.79125 16.8873 10.5C16.8873 11.2087 16.7474 11.9106 16.4757 12.5654C16.2039 13.2201 15.8057 13.8151 15.3036 14.3163C14.2895 15.3284 12.9142 15.897 11.4801 15.897C10.0461 15.897 8.67074 15.3284 7.65671 14.3163C6.64267 13.3041 6.07299 11.9314 6.07299 10.5C6.07299 9.06862 6.64267 7.69587 7.65671 6.68373ZM18.0865 5.90673C18.2109 5.78958 18.3105 5.6487 18.3794 5.49243C18.4483 5.33616 18.4851 5.16769 18.4876 4.99698C18.4901 4.82627 18.4582 4.6568 18.3939 4.49859C18.3296 4.34039 18.2342 4.19667 18.1132 4.07595C17.9923 3.95522 17.8483 3.85995 17.6898 3.79577C17.5313 3.73158 17.3615 3.6998 17.1905 3.70228C17.0194 3.70477 16.8507 3.74149 16.6941 3.81026C16.5375 3.87902 16.3964 3.97845 16.279 4.10264C16.0508 4.34416 15.9258 4.66498 15.9306 4.99698C15.9355 5.32898 16.0698 5.64602 16.305 5.8808C16.5402 6.11559 16.8579 6.24963 17.1905 6.25447C17.5231 6.25931 17.8445 6.13457 18.0865 5.90673Z" fill="#06113C"/>
</svg>
