<svg width="9" height="9" viewBox="0 0 9 9" fill="none" xmlns="http://www.w3.org/2000/svg">
<path fill-rule="evenodd" clip-rule="evenodd" d="M2.64477 0.027C3.12464 0.00490908 3.27764 0 4.5 0C5.72236 0 5.87536 0.00531818 6.35482 0.027C6.83427 0.0486818 7.16155 0.125182 7.44791 0.236045C7.74777 0.349364 8.01982 0.5265 8.24482 0.755591C8.47391 0.980182 8.65064 1.25182 8.76355 1.55209C8.87482 1.83845 8.95091 2.16573 8.973 2.64436C8.99509 3.12505 9 3.27805 9 4.5C9 5.72236 8.99468 5.87536 8.973 6.35523C8.95132 6.83386 8.87482 7.16114 8.76355 7.4475C8.65063 7.74781 8.47361 8.0199 8.24482 8.24482C8.01982 8.47391 7.74777 8.65064 7.44791 8.76355C7.16155 8.87482 6.83427 8.95091 6.35564 8.973C5.87536 8.99509 5.72236 9 4.5 9C3.27764 9 3.12464 8.99468 2.64477 8.973C2.16614 8.95132 1.83886 8.87482 1.5525 8.76355C1.25219 8.65062 0.980108 8.4736 0.755182 8.24482C0.526246 8.02009 0.349083 7.74814 0.236045 7.44791C0.125182 7.16155 0.0490909 6.83427 0.027 6.35564C0.00490908 5.87495 0 5.72195 0 4.5C0 3.27764 0.00531818 3.12464 0.027 2.64518C0.0486818 2.16573 0.125182 1.83845 0.236045 1.55209C0.34925 1.25185 0.526549 0.979901 0.755591 0.755182C0.980198 0.526296 1.25201 0.349136 1.55209 0.236045C1.83845 0.125182 2.16614 0.0490909 2.64477 0.027ZM6.31841 0.837C5.84386 0.815318 5.7015 0.810818 4.5 0.810818C3.2985 0.810818 3.15614 0.815318 2.68159 0.837C2.24264 0.857045 2.00455 0.930273 1.84582 0.992045C1.63595 1.07386 1.48582 1.17082 1.32832 1.32832C1.17902 1.47357 1.06412 1.65039 0.992045 1.84582C0.930273 2.00455 0.857045 2.24264 0.837 2.68159C0.815318 3.15614 0.810818 3.2985 0.810818 4.5C0.810818 5.7015 0.815318 5.84386 0.837 6.31841C0.857045 6.75736 0.930273 6.99545 0.992045 7.15418C1.06405 7.34932 1.179 7.52645 1.32832 7.67168C1.47355 7.821 1.65068 7.93595 1.84582 8.00795C2.00455 8.06973 2.24264 8.14295 2.68159 8.163C3.15614 8.18468 3.29809 8.18918 4.5 8.18918C5.70191 8.18918 5.84386 8.18468 6.31841 8.163C6.75736 8.14295 6.99545 8.06973 7.15418 8.00795C7.36405 7.92614 7.51418 7.82918 7.67168 7.67168C7.821 7.52645 7.93595 7.34932 8.00795 7.15418C8.06973 6.99545 8.14295 6.75736 8.163 6.31841C8.18468 5.84386 8.18918 5.7015 8.18918 4.5C8.18918 3.2985 8.18468 3.15614 8.163 2.68159C8.14295 2.24264 8.06973 2.00455 8.00795 1.84582C7.92614 1.63595 7.82918 1.48582 7.67168 1.32832C7.52642 1.17903 7.34961 1.06413 7.15418 0.992045C6.99545 0.930273 6.75736 0.857045 6.31841 0.837ZM3.92523 5.88723C4.24622 6.02085 4.60365 6.03888 4.93647 5.93825C5.26929 5.83762 5.55684 5.62456 5.75002 5.33546C5.9432 5.04637 6.03002 4.69917 5.99566 4.35318C5.96129 4.00718 5.80787 3.68385 5.56159 3.43841C5.4046 3.28151 5.21477 3.16138 5.00577 3.08665C4.79678 3.01192 4.57381 2.98447 4.35293 3.00625C4.13205 3.02804 3.91874 3.09853 3.72837 3.21264C3.538 3.32676 3.3753 3.48167 3.25199 3.66621C3.12867 3.85076 3.0478 4.06035 3.01521 4.27989C2.98262 4.49944 2.99911 4.72348 3.06349 4.93589C3.12788 5.1483 3.23856 5.34379 3.38757 5.5083C3.53657 5.6728 3.7202 5.80221 3.92523 5.88723ZM2.86445 2.86445C3.07924 2.64967 3.33422 2.4793 3.61485 2.36306C3.89548 2.24682 4.19625 2.18699 4.5 2.18699C4.80375 2.18699 5.10452 2.24682 5.38515 2.36306C5.66578 2.4793 5.92076 2.64967 6.13555 2.86445C6.35033 3.07924 6.5207 3.33422 6.63694 3.61485C6.75318 3.89548 6.81301 4.19625 6.81301 4.5C6.81301 4.80375 6.75318 5.10452 6.63694 5.38515C6.5207 5.66578 6.35033 5.92076 6.13555 6.13555C5.70177 6.56932 5.11345 6.81301 4.5 6.81301C3.88655 6.81301 3.29823 6.56932 2.86445 6.13555C2.43068 5.70177 2.18699 5.11345 2.18699 4.5C2.18699 3.88655 2.43068 3.29823 2.86445 2.86445ZM7.326 2.53145C7.37922 2.48125 7.42183 2.42087 7.45131 2.3539C7.48078 2.28693 7.49651 2.21472 7.49758 2.14156C7.49865 2.0684 7.48502 1.99577 7.45752 1.92797C7.43001 1.86017 7.38918 1.79857 7.33744 1.74683C7.2857 1.6951 7.22411 1.65426 7.15631 1.62676C7.0885 1.59925 7.01587 1.58563 6.94271 1.58669C6.86955 1.58776 6.79735 1.60349 6.73037 1.63297C6.6634 1.66244 6.60303 1.70505 6.55282 1.75827C6.45517 1.86178 6.40171 1.99928 6.40379 2.14156C6.40586 2.28385 6.46331 2.41972 6.56393 2.52034C6.66455 2.62097 6.80042 2.67841 6.94271 2.68049C7.085 2.68256 7.22249 2.6291 7.326 2.53145Z" fill="white"/>
</svg>
