<svg width="28" height="15" viewBox="0 0 28 15" fill="none" xmlns="http://www.w3.org/2000/svg">
<path d="M4.17646 10.1486C3.12797 10.1486 1.62515 9.99429 0.489292 9.65143L0 11.3657C1.17081 11.76 2.84838 11.9486 4.22888 11.9486C9.50625 11.9486 11.1838 10.1829 11.1838 6.84V0H9.0519V6.82286C9.0519 9.22286 8.0209 10.1486 4.17646 10.1486Z" fill="#002140"/>
<path d="M14.3348 6.94286C14.3348 9.70286 15.9424 10.9543 19.8218 10.9543C22.0411 10.9543 24.2779 10.4229 26.0428 9.78857L26.0953 10.32C26.1652 12.6514 24.8546 13.44 21.1674 13.44C19.0704 13.44 17.1132 13.1143 15.3483 12.6686L14.9639 14.2114C16.589 14.6743 18.9131 15 21.0451 15C25.9205 15 28 13.8171 28 10.1657V3.10286H26.0079V8.41714C24.1556 8.94857 22.2683 9.30857 20.2762 9.30857C17.4278 9.30857 16.3269 8.57143 16.3269 6.66857V3.10286H14.3348V6.94286Z" fill="#002140"/>
</svg>
