<svg width="18" height="18" viewBox="0 0 18 18" fill="none" xmlns="http://www.w3.org/2000/svg">
<path d="M15.75 7.48517C15.75 12.7882 9 17.3337 9 17.3337C9 17.3337 2.25 12.7882 2.25 7.48517C2.25 5.67688 2.96116 3.94265 4.22703 2.66399C5.4929 1.38533 7.20979 0.666992 9 0.666992C10.7902 0.666992 12.5071 1.38533 13.773 2.66399C15.0388 3.94265 15.75 5.67688 15.75 7.48517Z" stroke="currentColor" stroke-linecap="round" stroke-linejoin="round"/>
<path d="M9 9.33301C10.2426 9.33301 11.25 8.43758 11.25 7.33301C11.25 6.22844 10.2426 5.33301 9 5.33301C7.75736 5.33301 6.75 6.22844 6.75 7.33301C6.75 8.43758 7.75736 9.33301 9 9.33301Z" fill="currentColor" stroke="currentColor" stroke-linecap="round" stroke-linejoin="round"/>
</svg>
