<svg width="13" height="13" viewBox="0 0 13 13" fill="none" xmlns="http://www.w3.org/2000/svg">
<path d="M9.40427 0.719546C9.78582 0.33814 10.3033 0.123924 10.8427 0.124023C11.3822 0.124123 11.8996 0.33853 12.281 0.720077C12.6624 1.10162 12.8766 1.61906 12.8765 2.15855C12.8764 2.69804 12.662 3.21539 12.2805 3.5968L11.8766 3.99957L9 1.12275L9.40321 0.719546H9.40427ZM7.87427 2.25061L1.54602 8.57673C1.35394 8.76896 1.20917 9.00321 1.12315 9.26098L0.152021 12.1754C0.120998 12.2689 0.116593 12.3692 0.139299 12.4651C0.162006 12.561 0.210928 12.6487 0.280599 12.7183C0.35027 12.788 0.437944 12.8369 0.533822 12.8596C0.629699 12.8823 0.730003 12.8779 0.823521 12.8469L3.73796 11.8758C3.99615 11.7908 4.2299 11.6452 4.42221 11.4529L10.7505 5.1268L7.87321 2.25061H7.87427Z" fill="black"/>
</svg>
