<svg width="19" height="19" viewBox="0 0 19 19" fill="none" xmlns="http://www.w3.org/2000/svg">
<path d="M9.20426 0.3125C4.12027 0.3125 0 4.42598 0 9.49954C0 13.3914 2.42591 16.7186 5.85056 18.0576C5.76948 17.3311 5.69761 16.2128 5.88188 15.4201C6.04957 14.7028 6.9617 10.8532 6.9617 10.8532C6.9617 10.8532 6.68622 10.3024 6.68622 9.4885C6.68622 8.21207 7.4279 7.25842 8.35202 7.25842C9.13793 7.25842 9.5166 7.84697 9.5166 8.55233C9.5166 9.34136 9.01354 10.5194 8.75465 11.6119C8.53813 12.526 9.2144 13.2718 10.1173 13.2718C11.7527 13.2718 13.0113 11.5503 13.0113 9.06456C13.0113 6.86482 11.4275 5.32721 9.16649 5.32721C6.5471 5.32721 5.00937 7.28784 5.00937 9.31377C5.00937 10.1028 5.31433 10.9498 5.69485 11.4105C5.72719 11.4452 5.75002 11.4876 5.76116 11.5337C5.77229 11.5798 5.77135 11.6279 5.75842 11.6735C5.6884 11.9632 5.53269 12.5876 5.50321 12.7155C5.46267 12.8838 5.36961 12.9196 5.19456 12.8387C4.04564 12.3044 3.32699 10.627 3.32699 9.27883C3.32699 6.38109 5.43595 3.7197 9.4088 3.7197C12.6022 3.7197 15.0834 5.99026 15.0834 9.02593C15.0834 12.1931 13.0831 14.7396 10.3071 14.7396C9.37379 14.7396 8.49759 14.2568 8.19723 13.6857L7.62323 15.8689C7.41593 16.6671 6.85483 17.6676 6.47984 18.2783C7.36259 18.5503 8.28132 18.6882 9.20518 18.6875C14.2883 18.6875 18.4094 14.574 18.4094 9.50046C18.4094 4.4269 14.2873 0.3125 9.20426 0.3125Z" fill="#06113C"/>
</svg>
