<svg width="9" height="12" viewBox="0 0 9 12" fill="none" xmlns="http://www.w3.org/2000/svg">
<path d="M4.78145 0C2.37647 0 0 1.64443 0 4.30592C0 5.99843 0.928164 6.96009 1.49069 6.96009C1.72282 6.96009 1.85633 6.29655 1.85633 6.10922C1.85633 5.88573 1.30093 5.40951 1.30093 4.47902C1.30093 2.54608 2.73536 1.17553 4.59169 1.17553C6.18776 1.17553 7.36906 2.10603 7.36906 3.81547C7.36906 5.09217 6.86991 7.48669 5.25247 7.48669C4.66894 7.48669 4.16942 7.05395 4.16942 6.43387C4.16942 5.52491 4.7882 4.64519 4.7882 3.70738C4.7882 2.11603 2.58723 2.40453 2.58723 4.32784C2.58723 4.73174 2.63636 5.17872 2.81224 5.54684C2.4886 6.97509 1.82783 9.10266 1.82783 10.574C1.82783 11.0283 1.8912 11.4756 1.93321 11.9299C2.01271 12.0215 1.97296 12.0119 2.09484 11.9661C3.27614 10.307 3.23413 9.98277 3.76853 7.81173C4.05692 8.3745 4.80207 8.67723 5.39272 8.67723C7.8817 8.67723 9 6.18884 9 3.94587C9 1.55865 6.98879 0.000769327 4.78107 0.000769327L4.78145 0Z" fill="white"/>
</svg>
