<svg width="28" height="28" viewBox="0 0 28 28" fill="none" xmlns="http://www.w3.org/2000/svg">
<path d="M14 19.25C12.9616 19.25 11.9466 18.9421 11.0833 18.3652C10.2199 17.7883 9.54699 16.9684 9.14963 16.0091C8.75227 15.0498 8.64831 13.9942 8.85088 12.9758C9.05345 11.9574 9.55347 11.0219 10.2877 10.2877C11.0219 9.55347 11.9574 9.05345 12.9758 8.85088C13.9942 8.64831 15.0498 8.75227 16.0091 9.14963C16.9684 9.54699 17.7883 10.2199 18.3652 11.0833C18.9421 11.9466 19.25 12.9616 19.25 14C19.2575 14.6915 19.1268 15.3776 18.8656 16.0179C18.6045 16.6583 18.218 17.24 17.729 17.729C17.24 18.218 16.6583 18.6045 16.0179 18.8656C15.3776 19.1268 14.6915 19.2575 14 19.25ZM14 10.5C13.5375 10.4895 13.0777 10.5728 12.6483 10.745C12.2189 10.9171 11.8288 11.1746 11.5017 11.5017C11.1746 11.8288 10.9171 12.2189 10.745 12.6483C10.5728 13.0777 10.4895 13.5375 10.5 14C10.4895 14.4625 10.5728 14.9224 10.745 15.3517C10.9171 15.7811 11.1746 16.1712 11.5017 16.4983C11.8288 16.8254 12.2189 17.0829 12.6483 17.255C13.0777 17.4272 13.5375 17.5105 14 17.5C14.4625 17.5105 14.9224 17.4272 15.3517 17.255C15.7811 17.0829 16.1712 16.8254 16.4983 16.4983C16.8254 16.1712 17.0829 15.7811 17.255 15.3517C17.4272 14.9224 17.5105 14.4625 17.5 14C17.5105 13.5375 17.4272 13.0777 17.255 12.6483C17.0829 12.2189 16.8254 11.8288 16.4983 11.5017C16.1712 11.1746 15.7811 10.9171 15.3517 10.745C14.9224 10.5728 14.4625 10.4895 14 10.5Z" fill="black"/>
<path d="M25.6418 9.6635L23.5768 6.0865C23.3746 5.73578 23.057 5.46608 22.6782 5.32342C22.2994 5.18076 21.8828 5.17399 21.4995 5.30425L19.3698 6.02437C19.0027 5.77727 18.6192 5.55566 18.2218 5.36112L17.7816 3.157C17.7023 2.76014 17.4879 2.40304 17.1749 2.1465C16.8619 1.88996 16.4696 1.74984 16.0649 1.75H11.9349C11.5302 1.74984 11.1379 1.88996 10.8249 2.1465C10.5119 2.40304 10.2975 2.76014 10.2182 3.157L9.77802 5.36112C9.37616 5.55353 8.98818 5.77369 8.6169 6.02L6.4994 5.30425C6.11636 5.17444 5.70016 5.18145 5.32171 5.32409C4.94326 5.46673 4.62598 5.73616 4.4239 6.0865L2.3589 9.6635C2.15661 10.0138 2.08189 10.4233 2.14746 10.8224C2.21302 11.2215 2.41482 11.5856 2.71852 11.8527L4.40815 13.3376C4.39328 13.5581 4.3749 13.7769 4.3749 14C4.3749 14.2257 4.38365 14.4489 4.3994 14.6703L2.7194 16.1473C2.41541 16.4142 2.21328 16.7781 2.14739 17.1773C2.08151 17.5764 2.15594 17.9861 2.35802 18.3365L4.42302 21.9135C4.62503 22.2644 4.94256 22.5343 5.3214 22.6771C5.70024 22.8199 6.11691 22.8268 6.50027 22.6966L8.63002 21.9756C8.99693 22.2232 9.38051 22.4451 9.77802 22.6398L10.2182 24.843C10.2975 25.2399 10.5119 25.597 10.8249 25.8535C11.1379 26.11 11.5302 26.2502 11.9349 26.25H15.7499V24.5H11.9349L11.3137 21.3938C10.4542 21.0745 9.65647 20.6092 8.95552 20.0182L5.9394 21.0385L3.8744 17.4615L6.25877 15.3659C6.09564 14.461 6.09357 13.5345 6.25265 12.6289L3.8744 10.5385L5.9394 6.9615L8.93802 7.9765C9.64397 7.38476 10.448 6.92103 11.3137 6.60625L11.9349 3.5H16.0649L16.6861 6.60625C17.5455 6.92555 18.3433 7.39089 19.0443 7.98175L22.0604 6.9615L24.1254 10.5385L21.6771 12.684L22.8304 14L25.2804 11.8527C25.5844 11.5858 25.7865 11.2219 25.8524 10.8227C25.9183 10.4236 25.8439 10.0139 25.6418 9.6635Z" fill="black"/>
<path d="M20.125 22.9079L17.8587 20.6416L16.625 21.8754L20.125 25.3754L26.25 19.2504L25.0163 18.0166L20.125 22.9079Z" fill="black"/>
</svg>
