<svg width="57" height="16" viewBox="0 0 57 16" fill="none" xmlns="http://www.w3.org/2000/svg">
<path d="M25.773 4.55L24.707 5.72C24.5337 5.486 24.2867 5.29533 23.966 5.148C23.654 5.00067 23.3377 4.927 23.017 4.927C22.5923 4.927 22.2153 5.03533 21.886 5.252C21.5567 5.46 21.392 5.772 21.392 6.188C21.392 6.396 21.4267 6.57367 21.496 6.721C21.574 6.85967 21.704 6.98533 21.886 7.098C22.0767 7.21067 22.2543 7.29733 22.419 7.358C22.5837 7.41867 22.8263 7.501 23.147 7.605C23.4503 7.70033 23.6973 7.78267 23.888 7.852C24.0873 7.92133 24.3213 8.034 24.59 8.19C24.8673 8.33733 25.084 8.49767 25.24 8.671C25.4047 8.84433 25.5433 9.074 25.656 9.36C25.7773 9.63733 25.838 9.94933 25.838 10.296C25.838 11.2407 25.5173 11.9687 24.876 12.48C24.2433 12.9827 23.446 13.234 22.484 13.234C21.8687 13.234 21.275 13.1213 20.703 12.896C20.1397 12.662 19.6803 12.337 19.325 11.921L20.495 10.829C20.7203 11.1323 21.0193 11.3793 21.392 11.57C21.7647 11.752 22.1373 11.843 22.51 11.843C22.952 11.843 23.3377 11.7303 23.667 11.505C24.005 11.2797 24.174 10.9373 24.174 10.478C24.174 10.322 24.1523 10.1833 24.109 10.062C24.0657 9.932 23.9833 9.815 23.862 9.711C23.7493 9.607 23.6497 9.52467 23.563 9.464C23.4763 9.39467 23.3203 9.321 23.095 9.243C22.8783 9.15633 22.7223 9.09567 22.627 9.061C22.5317 9.02633 22.341 8.96567 22.055 8.879C21.7257 8.775 21.444 8.66667 21.21 8.554C20.976 8.44133 20.7333 8.28967 20.482 8.099C20.2393 7.89967 20.053 7.64833 19.923 7.345C19.793 7.033 19.728 6.67333 19.728 6.266C19.728 5.39067 20.0573 4.72333 20.716 4.264C21.3833 3.796 22.1763 3.562 23.095 3.562C23.5803 3.562 24.0613 3.64867 24.538 3.822C25.0233 3.98667 25.435 4.22933 25.773 4.55ZM31.7818 6.578C32.5445 6.578 33.1165 6.825 33.4978 7.319C33.8878 7.80433 34.0828 8.398 34.0828 9.1V13H32.5228V9.568C32.5228 8.46733 32.1372 7.917 31.3658 7.917C30.8978 7.917 30.5338 8.086 30.2738 8.424C30.0225 8.75333 29.8968 9.14333 29.8968 9.594V13H28.3368V3.172H29.8968V7.631H29.9228C30.0615 7.345 30.2955 7.098 30.6248 6.89C30.9628 6.682 31.3485 6.578 31.7818 6.578ZM40.6866 13V12.207H40.6476C40.4916 12.4843 40.236 12.714 39.8806 12.896C39.534 13.0693 39.144 13.156 38.7106 13.156C38.1126 13.156 37.571 13 37.0856 12.688C36.609 12.3673 36.3706 11.8777 36.3706 11.219C36.3706 10.8637 36.4573 10.556 36.6306 10.296C36.8126 10.0273 37.038 9.81933 37.3066 9.672C37.5753 9.52467 37.909 9.40767 38.3076 9.321C38.715 9.22567 39.0963 9.165 39.4516 9.139C39.8156 9.113 40.2186 9.1 40.6606 9.1V8.944C40.6606 8.58 40.5263 8.29833 40.2576 8.099C39.989 7.89967 39.6466 7.8 39.2306 7.8C38.572 7.8 38.0043 8.03833 37.5276 8.515L36.7216 7.566C37.4323 6.90733 38.312 6.578 39.3606 6.578C39.898 6.578 40.353 6.656 40.7256 6.812C41.107 6.95933 41.3973 7.16733 41.5966 7.436C41.796 7.696 41.9346 7.97333 42.0126 8.268C42.0993 8.554 42.1426 8.866 42.1426 9.204V13H40.6866ZM40.6606 10.374V10.153H40.3096C38.7236 10.153 37.9306 10.4997 37.9306 11.193C37.9306 11.4703 38.0346 11.6697 38.2426 11.791C38.4593 11.9123 38.7193 11.973 39.0226 11.973C39.5513 11.973 39.9543 11.8343 40.2316 11.557C40.5176 11.271 40.6606 10.8767 40.6606 10.374ZM44.8701 13V6.76H46.3651V7.8H46.3911C46.5644 7.42733 46.8114 7.13267 47.1321 6.916C47.4528 6.69067 47.8124 6.578 48.2111 6.578C48.3584 6.578 48.4841 6.591 48.5881 6.617V8.047C48.4148 8.00367 48.2544 7.982 48.1071 7.982C47.8384 7.982 47.6001 8.02533 47.3921 8.112C47.1841 8.19867 47.0194 8.307 46.8981 8.437C46.7854 8.567 46.6901 8.71433 46.6121 8.879C46.5428 9.035 46.4951 9.178 46.4691 9.308C46.4431 9.438 46.4301 9.555 46.4301 9.659V13H44.8701ZM51.4829 9.256H54.6809C54.6809 8.82267 54.5553 8.463 54.3039 8.177C54.0526 7.891 53.6886 7.748 53.2119 7.748C52.7526 7.748 52.3583 7.891 52.0289 8.177C51.6996 8.463 51.5176 8.82267 51.4829 9.256ZM56.2409 9.958C56.2409 10.14 56.2366 10.2787 56.2279 10.374H51.4829C51.5176 10.8073 51.7083 11.1713 52.0549 11.466C52.4016 11.7607 52.8046 11.908 53.2639 11.908C53.9833 11.908 54.5336 11.6393 54.9149 11.102L55.9549 11.934C55.3396 12.766 54.4469 13.182 53.2769 13.182C52.2976 13.182 51.4916 12.8873 50.8589 12.298C50.2349 11.7087 49.9229 10.9157 49.9229 9.919C49.9229 8.92233 50.2349 8.11633 50.8589 7.501C51.4829 6.88567 52.2716 6.578 53.2249 6.578C54.1263 6.578 54.8543 6.86833 55.4089 7.449C55.9636 8.02967 56.2409 8.866 56.2409 9.958Z" fill="#36433D"/>
<path d="M5.33333 15H2.44444C2.06135 15 1.69395 14.8361 1.42307 14.5444C1.15218 14.2527 1 13.857 1 13.4444V2.55556C1 2.143 1.15218 1.74733 1.42307 1.45561C1.69395 1.16389 2.06135 1 2.44444 1H5.33333" stroke="black" stroke-linecap="round" stroke-linejoin="round"/>
<path d="M10.75 12L14 8L10.75 4" stroke="black" stroke-linecap="round" stroke-linejoin="round"/>
<path d="M14.0002 8H5.3335" stroke="black" stroke-linecap="round" stroke-linejoin="round"/>
</svg>
