<svg width="13" height="13" viewBox="0 0 13 13" fill="none" xmlns="http://www.w3.org/2000/svg">
<g clip-path="url(#clip0_25_13422)">
<path d="M6.54499 1.03027L8.13678 4.25507L11.6964 4.77536L9.1207 7.28411L9.72857 10.8283L6.54499 9.15408L3.3614 10.8283L3.96927 7.28411L1.39355 4.77536L4.95319 4.25507L6.54499 1.03027Z" fill="#B4BBB8"/>
<path fill-rule="evenodd" clip-rule="evenodd" d="M6.54526 0.555664C6.726 0.555664 6.89108 0.65827 6.97108 0.820344L8.45249 3.82152L11.7654 4.30575C11.9442 4.33188 12.0927 4.45725 12.1484 4.62916C12.2041 4.80106 12.1575 4.98971 12.028 5.1158L9.63123 7.45027L10.1969 10.7483C10.2274 10.9264 10.1542 11.1065 10.0079 11.2128C9.86169 11.319 9.66781 11.333 9.50782 11.2488L6.54526 9.69087L3.5827 11.2488C3.42271 11.333 3.22883 11.319 3.08258 11.2128C2.93633 11.1065 2.86308 10.9264 2.89364 10.7483L3.45929 7.45027L1.0625 5.1158C0.933039 4.98971 0.886372 4.80106 0.942111 4.62916C0.99785 4.45725 1.14633 4.33188 1.32515 4.30575L4.63803 3.82152L6.11944 0.820344C6.19944 0.65827 6.36451 0.555664 6.54526 0.555664ZM6.54526 2.10338L5.37928 4.46552C5.31017 4.60553 5.17665 4.70262 5.02215 4.7252L2.41404 5.10642L4.30087 6.9442C4.41288 7.05329 4.46401 7.21054 4.43758 7.36464L3.99238 9.96034L6.32423 8.73405C6.4626 8.66128 6.62792 8.66128 6.76629 8.73405L9.09813 9.96034L8.65294 7.36464C8.62651 7.21054 8.67763 7.05329 8.78964 6.9442L10.6765 5.10642L8.06837 4.7252C7.91387 4.70262 7.78034 4.60553 7.71123 4.46552L6.54526 2.10338Z" fill="#B4BBB8"/>
</g>
<defs>
<clipPath id="clip0_25_13422">
<rect width="12.3634" height="12.3634" fill="white" transform="translate(0.363281)"/>
</clipPath>
</defs>
</svg>
