<svg width="15" height="15" viewBox="0 0 15 15" fill="none" xmlns="http://www.w3.org/2000/svg">
<g clip-path="url(#clip0_214_3497)">
<path fill-rule="evenodd" clip-rule="evenodd" d="M7.57178 1.22363C7.77876 1.22363 7.96779 1.34113 8.0594 1.52673L9.75582 4.96347L13.5495 5.51798C13.7543 5.54791 13.9243 5.69147 13.9881 5.88833C14.052 6.08518 13.9985 6.3012 13.8503 6.44559L11.1056 9.11888L11.7534 12.8955C11.7884 13.0996 11.7045 13.3058 11.537 13.4274C11.3695 13.5491 11.1475 13.5651 10.9643 13.4688L7.57178 11.6847L4.17926 13.4688C3.99605 13.5651 3.77403 13.5491 3.60655 13.4274C3.43908 13.3058 3.3552 13.0996 3.39019 12.8955L4.03794 9.11888L1.29329 6.44559C1.14504 6.3012 1.09161 6.08518 1.15543 5.88833C1.21926 5.69147 1.38929 5.54791 1.59406 5.51798L5.38775 4.96347L7.08417 1.52673C7.17578 1.34113 7.36481 1.22363 7.57178 1.22363ZM7.57178 2.99597L6.23659 5.70093C6.15745 5.86127 6.00454 5.97245 5.82762 5.99831L2.84099 6.43485L5.00166 8.53935C5.12993 8.66428 5.18848 8.84435 5.15821 9.02082L4.6484 11.9932L7.31868 10.589C7.47713 10.5056 7.66644 10.5056 7.82489 10.589L10.4952 11.9932L9.98536 9.02082C9.95509 8.84435 10.0136 8.66428 10.1419 8.53935L12.3026 6.43485L9.31595 5.99831C9.13903 5.97245 8.98612 5.86127 8.90698 5.70093L7.57178 2.99597Z" fill="#06113C" fill-opacity="0.7"/>
</g>
<defs>
<clipPath id="clip0_214_3497">
<rect width="14.1578" height="14.1578" fill="white" transform="translate(0.492676 0.587646)"/>
</clipPath>
</defs>
</svg>
