<svg width="13" height="13" viewBox="0 0 13 13" fill="none" xmlns="http://www.w3.org/2000/svg">
<g clip-path="url(#clip0_25_13428)">
<path fill-rule="evenodd" clip-rule="evenodd" d="M6.63608 0.555664C6.81682 0.555664 6.9819 0.65827 7.0619 0.820344L8.54331 3.82152L11.8562 4.30575C12.035 4.33188 12.1835 4.45725 12.2392 4.62916C12.295 4.80106 12.2483 4.98971 12.1188 5.1158L9.72205 7.45027L10.2877 10.7483C10.3183 10.9264 10.245 11.1065 10.0988 11.2128C9.95251 11.319 9.75863 11.333 9.59864 11.2488L6.63608 9.69087L3.67352 11.2488C3.51353 11.333 3.31965 11.319 3.1734 11.2128C3.02715 11.1065 2.9539 10.9264 2.98446 10.7483L3.55011 7.45027L1.15332 5.1158C1.02386 4.98971 0.977192 4.80106 1.03293 4.62916C1.08867 4.45725 1.23715 4.33188 1.41597 4.30575L4.72885 3.82152L6.21026 0.820344C6.29026 0.65827 6.45533 0.555664 6.63608 0.555664ZM6.63608 2.10338L5.4701 4.46552C5.40099 4.60553 5.26747 4.70262 5.11297 4.7252L2.50486 5.10642L4.39169 6.9442C4.5037 7.05329 4.55483 7.21054 4.5284 7.36464L4.08321 9.96034L6.41505 8.73405C6.55342 8.66128 6.71874 8.66128 6.85711 8.73405L9.18895 9.96034L8.74376 7.36464C8.71733 7.21054 8.76845 7.05329 8.88046 6.9442L10.7673 5.10642L8.15919 4.7252C8.00469 4.70262 7.87117 4.60553 7.80205 4.46552L6.63608 2.10338Z" fill="#B4BBB8"/>
</g>
<defs>
<clipPath id="clip0_25_13428">
<rect width="12.3634" height="12.3634" fill="white" transform="translate(0.454102)"/>
</clipPath>
</defs>
</svg>
