<svg width="20" height="16" viewBox="0 0 20 16" fill="none" xmlns="http://www.w3.org/2000/svg">
<path d="M6.46011 15.0625C13.4074 15.0625 17.2078 9.50658 17.2078 4.69693C17.2078 4.54146 17.2078 4.38376 17.2009 4.22829C17.9408 3.71133 18.5794 3.0713 19.0867 2.33819C18.3956 2.63231 17.6631 2.82616 16.9132 2.91344C17.7031 2.45772 18.2948 1.74069 18.5781 0.895626C17.836 1.31998 17.0237 1.61788 16.1769 1.77627C15.6075 1.19105 14.8541 0.803361 14.0334 0.673253C13.2127 0.543144 12.3704 0.677877 11.637 1.05658C10.9036 1.43529 10.3201 2.03683 9.97684 2.76803C9.63355 3.49923 9.54965 4.31928 9.73815 5.10116C8.23633 5.02847 6.76711 4.65192 5.42578 3.99591C4.08445 3.33989 2.90097 2.41908 1.9521 1.29319C1.47039 2.09619 1.32339 3.04603 1.54093 3.94984C1.75848 4.85366 2.32426 5.64368 3.1234 6.15948C2.52456 6.13984 1.93889 5.98464 1.41362 5.70639V5.75636C1.41466 6.59756 1.71658 7.41261 2.26837 8.06375C2.82015 8.71489 3.58795 9.16218 4.44198 9.33001C4.11781 9.4162 3.78295 9.45917 3.44672 9.45772C3.20968 9.45841 2.97311 9.43721 2.74025 9.39442C2.98163 10.1185 3.45163 10.7517 4.08443 11.2051C4.71722 11.6585 5.48112 11.9096 6.26912 11.9231C4.93047 12.9379 3.27689 13.4882 1.57471 13.4856C1.27477 13.4868 0.975046 13.4701 0.677246 13.4356C2.40487 14.4987 4.41125 15.0631 6.46011 15.0625Z" fill="#06113C"/>
</svg>
