<svg width="10" height="7" viewBox="0 0 10 7" fill="none" xmlns="http://www.w3.org/2000/svg">
<path d="M5.03219 0H5.08782C5.6016 0.00186849 8.20489 0.0205535 8.90681 0.208649C9.119 0.266054 9.31236 0.377948 9.46757 0.533149C9.62277 0.688349 9.73438 0.881421 9.79124 1.09307C9.85437 1.32974 9.89874 1.64303 9.92875 1.96628L9.935 2.03105L9.94875 2.19299L9.95375 2.25776C9.99438 2.82703 9.99938 3.36017 10 3.47664V3.52336C9.99938 3.64419 9.99375 4.21345 9.94875 4.80639L9.94375 4.87179L9.93812 4.93656C9.90687 5.29282 9.86062 5.64659 9.79124 5.90693C9.73455 6.11866 9.623 6.31183 9.46777 6.46705C9.31254 6.62228 9.11909 6.73412 8.90681 6.79135C8.18176 6.98567 5.42596 6.99938 5.04407 7H4.95531C4.76217 7 3.96337 6.99626 3.12582 6.96761L3.01956 6.96388L2.96519 6.96138L2.8583 6.95702L2.75142 6.95266C2.05763 6.92215 1.39696 6.87294 1.09257 6.79073C0.880361 6.73355 0.686959 6.62181 0.531736 6.46669C0.376513 6.31158 0.264921 6.11855 0.208138 5.90693C0.138759 5.64721 0.0925058 5.29282 0.0612538 4.93656L0.0562535 4.87116L0.0512532 4.80639C0.020406 4.38436 0.00331262 3.96144 0 3.5383L0 3.4617C0.00125008 3.32779 0.00625039 2.86502 0.0400025 2.3543L0.0443778 2.29015L0.0462529 2.25776L0.0512532 2.19299L0.0650041 2.03105L0.0712545 1.96628C0.101256 1.64303 0.145634 1.32912 0.208763 1.09307C0.26545 0.881336 0.377 0.688173 0.532229 0.532946C0.687458 0.377718 0.880911 0.265882 1.09319 0.208649C1.39759 0.12768 2.05825 0.0778539 2.75205 0.0467123L2.8583 0.0423525L2.96581 0.0386156L3.01956 0.0367471L3.12645 0.0323873C3.7213 0.0133128 4.3164 0.00272356 4.91156 0.00062286L5.03219 0ZM4.00025 1.99929V5.00009L6.59854 3.50031L4.00025 1.99929Z" fill="white"/>
</svg>
