<svg width="114" height="20" viewBox="0 0 114 20" fill="none" xmlns="http://www.w3.org/2000/svg">
<path d="M4.64384 14.4339C3.47802 14.4339 1.80702 14.2624 0.544048 13.8814L0 15.7867C1.30183 16.225 3.16714 16.4345 4.70213 16.4345C10.5701 16.4345 12.4354 14.472 12.4354 10.7566V3.15428H10.0649V10.7376C10.0649 13.405 8.91851 14.4339 4.64384 14.4339Z" fill="black"/>
<path d="M14.9827 11.3663C14.9827 14.8341 17.6253 16.3774 23.2795 16.3774C28.9531 16.3774 31.5762 14.8341 31.5762 11.3663C31.5762 7.89859 28.9531 6.35526 23.2795 6.35526C17.6253 6.35526 14.9827 7.89859 14.9827 11.3663ZM17.1978 11.3663C17.1978 9.13707 18.7522 8.2225 23.2795 8.2225C27.8067 8.2225 29.3611 9.13707 29.3611 11.3663C29.3611 13.6146 27.8067 14.5101 23.2795 14.5101C18.7522 14.5101 17.1978 13.6146 17.1978 11.3663Z" fill="black"/>
<path d="M34.3364 16.1487H36.5514V9.42287C38.9219 8.66073 41.0787 8.2225 42.808 8.2225C45.6837 8.2225 46.8495 9.30855 46.8495 11.2329V16.1487H49.0645V10.9662C49.0645 7.689 47.0049 6.37431 43.5269 6.37431C41.0204 6.37431 38.5722 7.02213 36.5514 7.82238V1.85864H34.3364V16.1487Z" fill="black"/>
<path d="M59.7439 14.6245C55.8967 14.6245 54.0897 14.11 53.8177 11.9379H66.7C66.7388 11.7283 66.7777 11.1948 66.7777 10.8709C66.7777 7.47941 63.6688 6.37431 59.2581 6.37431C54.4589 6.37431 51.6415 7.74616 51.6415 11.3663C51.6415 15.0627 54.2451 16.3774 59.569 16.3774C62.0561 16.3774 64.7764 16.0535 66.4279 15.6343L65.9616 13.9957C64.9707 14.2053 62.5807 14.6245 59.7439 14.6245ZM59.1804 7.91764C63.1636 7.91764 64.4266 8.81316 64.6015 10.6995H53.8177C54.0508 8.60357 55.7218 7.91764 59.1804 7.91764Z" fill="black"/>
<path d="M69.5151 16.1487H71.7301V9.42287C74.1006 8.66073 76.2574 8.2225 77.9867 8.2225C80.8624 8.2225 82.0282 9.30855 82.0282 11.2329V16.1487H84.2432V10.9662C84.2432 7.689 82.1836 6.37431 78.6862 6.37431C76.1408 6.37431 73.6731 7.09835 71.633 7.9367L71.4581 6.60295H69.5151V16.1487Z" fill="black"/>
<path d="M87.0339 10.8709C87.0339 13.9385 88.8215 15.3294 93.135 15.3294C95.6027 15.3294 98.0897 14.7388 100.052 14.0338L100.11 14.6245C100.188 17.2157 98.731 18.0922 94.6312 18.0922C92.2995 18.0922 90.1233 17.7302 88.1609 17.2348L87.7334 18.9496C89.5404 19.464 92.1246 19.8261 94.4951 19.8261C99.9162 19.8261 102.228 18.5114 102.228 14.453V6.60295H100.013V12.5095C97.9537 13.1002 95.8553 13.5003 93.6402 13.5003C90.4731 13.5003 89.249 12.681 89.249 10.5661V6.60295H87.0339V10.8709Z" fill="black"/>
<path d="M108.777 4.38947H109.526C109.712 4.38947 109.862 4.36293 109.976 4.30984C110.094 4.25675 110.185 4.19141 110.249 4.11382C110.313 4.03623 110.356 3.95251 110.378 3.86267C110.403 3.77283 110.415 3.69115 110.415 3.61764C110.415 3.54413 110.403 3.46246 110.378 3.37262C110.356 3.28277 110.313 3.19906 110.249 3.12146C110.185 3.04387 110.094 2.97853 109.976 2.92544C109.862 2.87236 109.712 2.84581 109.526 2.84581H108.777V4.38947ZM108.424 2.47827H109.419C109.469 2.47827 109.537 2.48031 109.623 2.4844C109.708 2.48848 109.801 2.50073 109.901 2.52115C110.001 2.54157 110.103 2.57424 110.206 2.61916C110.31 2.66408 110.403 2.72942 110.485 2.81518C110.567 2.90094 110.634 3.00916 110.688 3.13984C110.742 3.27052 110.768 3.42979 110.768 3.61764C110.768 3.82591 110.736 3.99743 110.672 4.1322C110.611 4.26696 110.533 4.37722 110.436 4.46298C110.344 4.54466 110.24 4.60591 110.126 4.64675C110.012 4.68759 109.903 4.71618 109.799 4.73251L110.902 6.81523H110.501L109.435 4.75701H108.777V6.81523H108.424V2.47827Z" fill="black"/>
<path fill-rule="evenodd" clip-rule="evenodd" d="M110.072 3.91519C110.099 3.83137 110.112 3.75516 110.112 3.68658C110.112 3.61799 110.099 3.54179 110.072 3.45797C110.048 3.37414 110.002 3.29603 109.932 3.22364C109.862 3.15124 109.763 3.09028 109.635 3.04075C109.511 2.99121 109.348 2.96645 109.147 2.96645H108.333V4.40671H109.147C109.348 4.40671 109.511 4.38194 109.635 4.33241C109.763 4.28288 109.862 4.22191 109.932 4.14952C110.002 4.07713 110.048 3.99902 110.072 3.91519ZM108.478 4.26145H109.147C109.339 4.26145 109.481 4.23763 109.582 4.19747L109.583 4.19691C109.698 4.15236 109.777 4.10135 109.828 4.04861C109.883 3.99086 109.916 3.93339 109.932 3.87628L109.934 3.87033C109.957 3.79708 109.967 3.73632 109.967 3.68658C109.967 3.63684 109.957 3.57604 109.934 3.50278L109.932 3.49691C109.916 3.4398 109.883 3.38229 109.828 3.32455C109.777 3.27181 109.698 3.22079 109.583 3.17624L109.582 3.17569C109.481 3.13553 109.339 3.1117 109.147 3.1117H108.478V4.26145ZM107.804 2.47827H109.031C109.088 2.47827 109.164 2.48026 109.257 2.48411C109.358 2.48822 109.465 2.50049 109.579 2.52046C109.697 2.54116 109.816 2.57411 109.936 2.61884C110.065 2.66708 110.182 2.7375 110.285 2.82967C110.39 2.92399 110.474 3.04112 110.54 3.17815C110.61 3.32455 110.641 3.49583 110.641 3.68658C110.641 3.89659 110.604 4.08242 110.519 4.23571C110.444 4.37806 110.346 4.49729 110.224 4.59078L110.223 4.59125C110.108 4.67794 109.981 4.7427 109.841 4.78563C109.786 4.80257 109.731 4.81745 109.678 4.83023L110.902 6.81523H110.124L108.966 4.89489H108.478V6.81523H107.804V2.47827ZM108.333 4.74963H109.048L110.205 6.66998H110.642L109.443 4.72677C109.494 4.71998 109.545 4.71093 109.597 4.69961C109.662 4.6855 109.729 4.66789 109.798 4.64675C109.922 4.60865 110.035 4.5515 110.136 4.47529C110.24 4.39528 110.326 4.2924 110.391 4.16667C110.461 4.04093 110.496 3.8809 110.496 3.68658C110.496 3.51131 110.467 3.36271 110.409 3.24078C110.351 3.11886 110.277 3.01789 110.188 2.93787C110.099 2.85786 109.998 2.79689 109.885 2.75498C109.773 2.71307 109.663 2.68259 109.554 2.66354C109.445 2.64448 109.345 2.63305 109.252 2.62924C109.158 2.62543 109.085 2.62353 109.031 2.62353H107.949V6.66998H108.333V4.74963Z" fill="white"/>
<path fill-rule="evenodd" clip-rule="evenodd" d="M109.353 9.09988C111.812 9.09988 113.806 7.10614 113.806 4.64675C113.806 2.18735 111.812 0.193614 109.353 0.193614C106.893 0.193614 104.9 2.18735 104.9 4.64675C104.9 7.10614 106.893 9.09988 109.353 9.09988ZM109.353 9.29349C111.919 9.29349 114 7.21307 114 4.64675C114 2.08042 111.919 0 109.353 0C106.786 0 104.706 2.08042 104.706 4.64675C104.706 7.21307 106.786 9.29349 109.353 9.29349Z" fill="black"/>
<path fill-rule="evenodd" clip-rule="evenodd" d="M113.806 4.64675C113.806 7.10614 111.812 9.09988 109.353 9.09988C106.893 9.09988 104.9 7.10614 104.9 4.64675C104.9 2.18735 106.893 0.193614 109.353 0.193614C111.812 0.193614 113.806 2.18735 113.806 4.64675ZM114 4.64675C114 7.21307 111.919 9.29349 109.353 9.29349C106.786 9.29349 104.706 7.21307 104.706 4.64675C104.706 2.08042 106.786 0 109.353 0C111.919 0 114 2.08042 114 4.64675Z" fill="white" fill-opacity="0.01"/>
</svg>
