<svg width="170" height="30" viewBox="0 0 170 30" fill="none" xmlns="http://www.w3.org/2000/svg">
<path d="M6.92501 21.5241C5.18652 21.5241 2.69467 21.2684 0.811299 20.7001L0 23.5414C1.94132 24.1949 4.72292 24.5074 7.01194 24.5074C15.7624 24.5074 18.544 21.5809 18.544 16.0404V4.70357H15.009V16.0119C15.009 19.9898 13.2995 21.5241 6.92501 21.5241Z" fill="black"/>
<path d="M22.3426 16.9496C22.3426 22.1207 26.2832 24.4222 34.7149 24.4222C43.1756 24.4222 47.0872 22.1207 47.0872 16.9496C47.0872 11.7784 43.1756 9.47696 34.7149 9.47696C26.2832 9.47696 22.3426 11.7784 22.3426 16.9496ZM25.6458 16.9496C25.6458 13.6253 27.9638 12.2614 34.7149 12.2614C41.4661 12.2614 43.7841 13.6253 43.7841 16.9496C43.7841 20.3023 41.4661 21.6377 34.7149 21.6377C27.9638 21.6377 25.6458 20.3023 25.6458 16.9496Z" fill="black"/>
<path d="M51.2033 24.0812H54.5064V14.0514C58.0414 12.9149 61.2576 12.2614 63.8363 12.2614C68.1246 12.2614 69.8631 13.881 69.8631 16.7507V24.0812H73.1663V16.3529C73.1663 11.4659 70.0949 9.50537 64.9084 9.50537C61.1706 9.50537 57.5198 10.4714 54.5064 11.6648V2.77148H51.2033V24.0812Z" fill="black"/>
<path d="M89.0916 21.8082C83.3546 21.8082 80.6599 21.041 80.2543 17.802H99.4647C99.5226 17.4894 99.5806 16.6939 99.5806 16.2108C99.5806 11.1533 94.9446 9.50537 88.3673 9.50537C81.2104 9.50537 77.0091 11.5511 77.0091 16.9496C77.0091 22.4617 80.8917 24.4222 88.8309 24.4222C92.5396 24.4222 96.5961 23.9392 99.059 23.3141L98.3636 20.8706C96.8859 21.1831 93.322 21.8082 89.0916 21.8082ZM88.2514 11.8068C94.1912 11.8068 96.0746 13.1422 96.3354 15.9551H80.2543C80.602 12.8297 83.0938 11.8068 88.2514 11.8068Z" fill="black"/>
<path d="M103.663 24.0812H106.966V14.0514C110.501 12.9149 113.717 12.2614 116.296 12.2614C120.584 12.2614 122.323 13.881 122.323 16.7507V24.0812H125.626V16.3529C125.626 11.4659 122.554 9.50537 117.339 9.50537C113.543 9.50537 109.863 10.5851 106.821 11.8352L106.56 9.84632H103.663V24.0812Z" fill="black"/>
<path d="M129.787 16.2108C129.787 20.7853 132.453 22.8595 138.885 22.8595C142.565 22.8595 146.274 21.9787 149.2 20.9274L149.287 21.8082C149.403 25.6724 147.23 26.9794 141.116 26.9794C137.639 26.9794 134.394 26.4395 131.468 25.7008L130.83 28.258C133.525 29.0251 137.379 29.565 140.914 29.565C148.998 29.565 152.446 27.6045 152.446 21.5525V9.84632H149.142V18.6544C146.071 19.5352 142.942 20.1318 139.639 20.1318C134.916 20.1318 133.09 18.9101 133.09 15.7562V9.84632H129.787V16.2108Z" fill="black"/>
<path d="M162.21 6.54535H163.328C163.605 6.54535 163.828 6.50576 163.998 6.4266C164.174 6.34743 164.31 6.24999 164.405 6.13429C164.501 6.01858 164.565 5.89374 164.597 5.75976C164.634 5.62579 164.653 5.50399 164.653 5.39437C164.653 5.28476 164.634 5.16296 164.597 5.02898C164.565 4.89501 164.501 4.77017 164.405 4.65446C164.31 4.53875 164.174 4.44132 163.998 4.36215C163.828 4.28298 163.605 4.2434 163.328 4.2434H162.21V6.54535ZM161.684 3.69531H163.168C163.243 3.69531 163.344 3.69836 163.472 3.70445C163.599 3.71054 163.738 3.72881 163.887 3.75926C164.036 3.7897 164.187 3.83842 164.342 3.90541C164.496 3.9724 164.634 4.06984 164.757 4.19772C164.879 4.32561 164.98 4.48699 165.06 4.68186C165.14 4.87674 165.18 5.11424 165.18 5.39437C165.18 5.70495 165.132 5.96073 165.036 6.16169C164.946 6.36265 164.828 6.52708 164.685 6.65496C164.546 6.77676 164.392 6.86811 164.222 6.92901C164.052 6.9899 163.889 7.03253 163.735 7.05689L165.379 10.1627H164.781L163.192 7.09343H162.21V10.1627H161.684V3.69531Z" fill="black"/>
<path fill-rule="evenodd" clip-rule="evenodd" d="M164.142 5.83808C164.182 5.71308 164.202 5.59944 164.202 5.49717C164.202 5.3949 164.182 5.28126 164.142 5.15626C164.107 5.03126 164.038 4.91478 163.934 4.80682C163.829 4.69886 163.682 4.60795 163.491 4.53409C163.306 4.46023 163.063 4.42329 162.763 4.42329H161.548V6.57105H162.763C163.063 6.57105 163.306 6.53412 163.491 6.46025C163.682 6.38639 163.829 6.29548 163.934 6.18752C164.038 6.07956 164.107 5.96309 164.142 5.83808ZM161.765 6.35444H162.763C163.048 6.35444 163.261 6.31892 163.411 6.25903L163.413 6.25819C163.585 6.19176 163.702 6.11568 163.778 6.03704C163.861 5.95093 163.91 5.86522 163.933 5.78006L163.936 5.77119C163.971 5.66195 163.986 5.57135 163.986 5.49717C163.986 5.423 163.971 5.33233 163.936 5.22309L163.933 5.21433C163.91 5.12917 163.861 5.04341 163.778 4.9573C163.702 4.87866 163.585 4.80257 163.413 4.73614L163.411 4.73532C163.261 4.67543 163.048 4.6399 162.763 4.6399H161.765V6.35444ZM160.76 3.69531H162.589C162.674 3.69531 162.788 3.69829 162.928 3.70402C163.077 3.71015 163.237 3.72845 163.407 3.75822C163.583 3.7891 163.761 3.83823 163.94 3.90493C164.133 3.97686 164.306 4.08189 164.459 4.21932C164.616 4.35999 164.742 4.53464 164.84 4.73899C164.944 4.9573 164.991 5.21272 164.991 5.49717C164.991 5.81034 164.935 6.08747 164.809 6.31605C164.697 6.52833 164.551 6.70612 164.368 6.84553L164.367 6.84623C164.196 6.97551 164.006 7.07209 163.797 7.13611C163.715 7.16137 163.634 7.18356 163.554 7.20261L165.379 10.1627H164.219L162.493 7.29903H161.765V10.1627H160.76V3.69531ZM161.548 7.08242H162.615L164.341 9.94609H164.992L163.205 7.04833C163.28 7.03821 163.356 7.0247 163.434 7.00782C163.531 6.98679 163.631 6.96052 163.734 6.92901C163.919 6.87219 164.087 6.78696 164.237 6.67332C164.393 6.554 164.52 6.40059 164.619 6.21309C164.723 6.02559 164.775 5.78695 164.775 5.49717C164.775 5.2358 164.731 5.01421 164.645 4.83239C164.558 4.65057 164.448 4.5 164.315 4.38068C164.182 4.26136 164.032 4.17045 163.864 4.10795C163.696 4.04545 163.532 3.99999 163.37 3.97158C163.208 3.94317 163.058 3.92613 162.919 3.92045C162.78 3.91476 162.67 3.91192 162.589 3.91192H160.976V9.94609H161.548V7.08242Z" fill="white"/>
<path fill-rule="evenodd" clip-rule="evenodd" d="M163.07 13.57C166.737 13.57 169.711 10.5969 169.711 6.92934C169.711 3.26183 166.737 0.288723 163.07 0.288723C159.402 0.288723 156.429 3.26183 156.429 6.92934C156.429 10.5969 159.402 13.57 163.07 13.57ZM163.07 13.8587C166.897 13.8587 169.999 10.7563 169.999 6.92934C169.999 3.10237 166.897 0 163.07 0C159.243 0 156.141 3.10237 156.141 6.92934C156.141 10.7563 159.243 13.8587 163.07 13.8587Z" fill="black"/>
<path fill-rule="evenodd" clip-rule="evenodd" d="M169.711 6.92934C169.711 10.5969 166.737 13.57 163.07 13.57C159.402 13.57 156.429 10.5969 156.429 6.92934C156.429 3.26183 159.402 0.288723 163.07 0.288723C166.737 0.288723 169.711 3.26183 169.711 6.92934ZM169.999 6.92934C169.999 10.7563 166.897 13.8587 163.07 13.8587C159.243 13.8587 156.141 10.7563 156.141 6.92934C156.141 3.10237 159.243 0 163.07 0C166.897 0 169.999 3.10237 169.999 6.92934Z" fill="white" fill-opacity="0.01"/>
</svg>
