<svg width="164" height="37" viewBox="0 0 164 37" fill="none" xmlns="http://www.w3.org/2000/svg">
<path d="M6.804 25.48C5.124 25.48 2.716 25.228 0.896 24.668L0.112 27.468C1.988 28.112 4.676 28.42 6.888 28.42C15.344 28.42 18.032 25.536 18.032 20.076V8.904H14.616V20.048C14.616 23.968 12.964 25.48 6.804 25.48ZM21.7028 20.972C21.7028 26.068 25.5108 28.336 33.6588 28.336C41.8348 28.336 45.6148 26.068 45.6148 20.972C45.6148 15.876 41.8348 13.608 33.6588 13.608C25.5108 13.608 21.7028 15.876 21.7028 20.972ZM24.8948 20.972C24.8948 17.696 27.1348 16.352 33.6588 16.352C40.1828 16.352 42.4228 17.696 42.4228 20.972C42.4228 24.276 40.1828 25.592 33.6588 25.592C27.1348 25.592 24.8948 24.276 24.8948 20.972ZM49.5924 28H52.7844V18.116C56.2004 16.996 59.3084 16.352 61.8004 16.352C65.9444 16.352 67.6244 17.948 67.6244 20.776V28H70.8164V20.384C70.8164 15.568 67.8484 13.636 62.8364 13.636C59.2244 13.636 55.6964 14.588 52.7844 15.764V7H49.5924V28ZM86.2059 25.76C80.6619 25.76 78.0579 25.004 77.6659 21.812H96.2299C96.2859 21.504 96.3419 20.72 96.3419 20.244C96.3419 15.26 91.8619 13.636 85.5059 13.636C78.5899 13.636 74.5299 15.652 74.5299 20.972C74.5299 26.404 78.2819 28.336 85.9539 28.336C89.5379 28.336 93.4579 27.86 95.8379 27.244L95.1659 24.836C93.7379 25.144 90.2939 25.76 86.2059 25.76ZM85.3939 15.904C91.1339 15.904 92.9539 17.22 93.2059 19.992H77.6659C78.0019 16.912 80.4099 15.904 85.3939 15.904ZM100.287 28H103.479V18.116C106.895 16.996 110.003 16.352 112.495 16.352C116.639 16.352 118.319 17.948 118.319 20.776V28H121.511V20.384C121.511 15.568 118.543 13.636 113.503 13.636C109.835 13.636 106.279 14.7 103.339 15.932L103.087 13.972H100.287V28ZM125.532 20.244C125.532 24.752 128.108 26.796 134.324 26.796C137.88 26.796 141.464 25.928 144.292 24.892L144.376 25.76C144.488 29.568 142.388 30.856 136.48 30.856C133.12 30.856 129.984 30.324 127.156 29.596L126.54 32.116C129.144 32.872 132.868 33.404 136.284 33.404C144.096 33.404 147.428 31.472 147.428 25.508V13.972H144.236V22.652C141.268 23.52 138.244 24.108 135.052 24.108C130.488 24.108 128.724 22.904 128.724 19.796V13.972H125.532V20.244Z" fill="white"/>
<path d="M158.314 8.89584C158.159 8.83813 158.006 8.79616 157.857 8.76993C157.707 8.7437 157.568 8.72796 157.44 8.72271C157.311 8.71747 157.21 8.71484 157.135 8.71484H155.743H155.643V8.81484L158.314 8.89584ZM158.314 8.89584C158.469 8.95354 158.608 9.03748 158.731 9.14765M158.314 8.89584L158.731 9.14765M158.731 9.14765C158.854 9.25782 158.956 9.39685 159.036 9.56472C159.116 9.7326 159.156 9.9372 159.156 10.1785C159.156 10.4461 159.108 10.6664 159.012 10.8395L158.731 9.14765ZM157.933 10.9745L157.933 10.9745L157.932 10.9749C157.777 11.0366 157.566 11.07 157.295 11.07H156.272V9.287H157.295C157.566 9.287 157.777 9.32045 157.932 9.38219L157.932 9.3822L157.933 9.38258C158.101 9.44735 158.223 9.52444 158.306 9.61058C158.393 9.70018 158.447 9.79352 158.474 9.89054L158.474 9.89056L158.476 9.89461C158.511 10.0027 158.527 10.0971 158.527 10.1785C158.527 10.26 158.511 10.3543 158.476 10.4624L158.475 10.4624L158.474 10.4665C158.447 10.5635 158.393 10.6569 158.306 10.7465C158.223 10.8326 158.101 10.9097 157.933 10.9745ZM155.643 8.61484H155.543V8.71484V14.2863V14.3863H155.643H156.172H156.272V14.2863V11.7422H157.102L158.67 14.338L158.699 14.3863H158.755H159.357H159.536L159.442 14.2337L157.868 11.6852C157.983 11.6632 158.101 11.6335 158.223 11.5962C158.405 11.5404 158.571 11.4564 158.719 11.3443L158.72 11.344C158.876 11.2245 159.003 11.0716 159.1 10.8871C159.206 10.695 159.256 10.4569 159.256 10.1785C159.256 9.92654 159.214 9.70633 159.126 9.52161C159.041 9.34333 158.932 9.19318 158.798 9.07316C158.666 8.95463 158.516 8.86417 158.349 8.80211C158.189 8.74246 158.03 8.6988 157.874 8.67143C157.721 8.64457 157.577 8.62825 157.444 8.6228C157.315 8.61753 157.212 8.61484 157.135 8.61484H155.643Z" fill="white" stroke="white" stroke-width="0.2"/>
<mask id="path-3-inside-1_25_17923" fill="white">
<path fill-rule="evenodd" clip-rule="evenodd" d="M157.5 17.7292C160.94 17.7292 163.729 14.9403 163.729 11.5C163.729 8.05973 160.94 5.27083 157.5 5.27083C154.06 5.27083 151.271 8.05973 151.271 11.5C151.271 14.9403 154.06 17.7292 157.5 17.7292ZM157.5 18C161.09 18 164 15.0899 164 11.5C164 7.91015 161.09 5 157.5 5C153.91 5 151 7.91015 151 11.5C151 15.0899 153.91 18 157.5 18Z"/>
</mask>
<path fill-rule="evenodd" clip-rule="evenodd" d="M157.5 17.7292C160.94 17.7292 163.729 14.9403 163.729 11.5C163.729 8.05973 160.94 5.27083 157.5 5.27083C154.06 5.27083 151.271 8.05973 151.271 11.5C151.271 14.9403 154.06 17.7292 157.5 17.7292ZM157.5 18C161.09 18 164 15.0899 164 11.5C164 7.91015 161.09 5 157.5 5C153.91 5 151 7.91015 151 11.5C151 15.0899 153.91 18 157.5 18Z" fill="white"/>
<path d="M162.729 11.5C162.729 14.388 160.388 16.7292 157.5 16.7292V18.7292C161.493 18.7292 164.729 15.4926 164.729 11.5H162.729ZM157.5 6.27083C160.388 6.27083 162.729 8.61201 162.729 11.5H164.729C164.729 7.50744 161.493 4.27083 157.5 4.27083V6.27083ZM152.271 11.5C152.271 8.61201 154.612 6.27083 157.5 6.27083V4.27083C153.507 4.27083 150.271 7.50744 150.271 11.5H152.271ZM157.5 16.7292C154.612 16.7292 152.271 14.388 152.271 11.5H150.271C150.271 15.4926 153.507 18.7292 157.5 18.7292V16.7292ZM163 11.5C163 14.5376 160.538 17 157.5 17V19C161.642 19 165 15.6421 165 11.5H163ZM157.5 6C160.538 6 163 8.46243 163 11.5H165C165 7.35786 161.642 4 157.5 4V6ZM152 11.5C152 8.46243 154.462 6 157.5 6V4C153.358 4 150 7.35786 150 11.5H152ZM157.5 17C154.462 17 152 14.5376 152 11.5H150C150 15.6421 153.358 19 157.5 19V17Z" fill="white" fill-opacity="0.01" mask="url(#path-3-inside-1_25_17923)"/>
</svg>
