<svg width="43" height="43" viewBox="0 0 43 43" fill="none" xmlns="http://www.w3.org/2000/svg">
<path d="M37.9594 35.1736C40.1585 32.5278 41.6879 29.3912 42.4184 26.0293C43.1489 22.6673 43.0589 19.1789 42.1561 15.8591C41.2532 12.5392 39.5641 9.48571 37.2315 6.95677C34.899 4.42783 31.9916 2.49789 28.7555 1.33021C25.5193 0.162522 22.0495 -0.208554 18.6396 0.248371C15.2297 0.705296 11.9799 1.97678 9.16535 3.95526C6.35076 5.93374 4.05408 8.56101 2.46961 11.6148C0.885145 14.6686 0.0594948 18.0592 0.0625082 21.4995C0.0636646 26.5009 1.82612 31.3421 5.0406 35.1736L5.00998 35.1996C5.11716 35.3283 5.23966 35.4385 5.34991 35.5656C5.48773 35.7233 5.63626 35.8719 5.77866 36.025C6.20741 36.4905 6.64841 36.9376 7.11085 37.3572C7.25173 37.4858 7.3972 37.6052 7.5396 37.7277C8.0296 38.1504 8.53338 38.5515 9.05554 38.9252C9.12291 38.9711 9.18417 39.0308 9.25154 39.0783V39.0599C12.8379 41.5837 17.1162 42.9381 21.5015 42.9381C25.8869 42.9381 30.1652 41.5837 33.7515 39.0599V39.0783C33.8189 39.0308 33.8786 38.9711 33.9475 38.9252C34.4682 38.55 34.9735 38.1504 35.4635 37.7277C35.6059 37.6052 35.7514 37.4843 35.8922 37.3572C36.3547 36.9361 36.7957 36.4905 37.2244 36.025C37.3668 35.8719 37.5138 35.7233 37.6532 35.5656C37.7619 35.4385 37.8859 35.3283 37.9931 35.1981L37.9594 35.1736ZM21.5 9.24955C22.8628 9.24955 24.1951 9.65368 25.3282 10.4108C26.4614 11.168 27.3446 12.2441 27.8661 13.5032C28.3876 14.7623 28.5241 16.1478 28.2582 17.4845C27.9924 18.8211 27.3361 20.0489 26.3724 21.0126C25.4087 21.9763 24.181 22.6325 22.8443 22.8984C21.5077 23.1643 20.1222 23.0278 18.8631 22.5063C17.604 21.9847 16.5278 21.1016 15.7707 19.9684C15.0135 18.8352 14.6094 17.503 14.6094 16.1402C14.6094 14.3127 15.3354 12.56 16.6276 11.2678C17.9198 9.97552 19.6725 9.24955 21.5 9.24955ZM9.26073 35.1736C9.28729 33.163 10.1044 31.2437 11.5352 29.831C12.966 28.4182 14.8955 27.6256 16.9063 27.6245H26.0938C28.1045 27.6256 30.034 28.4182 31.4648 29.831C32.8957 31.2437 33.7127 33.163 33.7393 35.1736C30.381 38.1999 26.0207 39.8747 21.5 39.8747C16.9794 39.8747 12.619 38.1999 9.26073 35.1736Z" fill="#CACEDD"/>
</svg>
